<svg xmlns="http://www.w3.org/2000/svg" viewBox="0 0 100 100">
  <g class="logo-fitc">
    <circle cx="50" cy="50" r="50" style="fill: #fff"></circle>
    <path
      style="fill: #2036a1"
      d="M64.3,53.2c0.5-3.7,2.4-7.1,5.2-9.5c-1.8,1-3.1,2-3.1,2c-0.7,0.5-1.7,0.9-2.3,0.9h-4l-2.7,18.1
      c-0.1,0.9-0.9,1.6-1.8,1.6h-4.2c-0.9,0-1.5-0.7-1.3-1.6l2.7-18.1h-3.2c-0.9,0-1.5-0.7-1.3-1.6l0.6-3.8c0.1-0.9,1-1.5,1.8-1.5h3.1
      l1.3-8.5c0.1-0.9,0.9-1.6,1.8-1.6h4.2c0.9,0,1.5,0.7,1.3,1.6l-1.3,8.5h23.5c0.9,0,1.5,0.7,1.3,1.5L85.4,45c-0.1,0.9-1,1.6-1.8,1.6
      h-5.1c-3.5,0.1-6.7,3.1-7.2,6.6c-0.5,3.6,2.1,6.6,5.7,6.6c4.6,0,6.6-4.2,6.7-4.3c0,0,0,0,0,0c0.3-0.5,0.8-0.8,1.4-0.8h4.2
      c0.8,0,1.4,0.6,1.2,1.4c-0.3,1.8-4.8,10.5-14.4,10.5C68.5,66.7,63.3,60.6,64.3,53.2 M9.9,60c-0.7-2.3,0-5.2,0-5.2l0,0
      c0.2-0.8,0.9-1.5,1.7-1.5h3.9c0.8,0,1.5,0.7,1.3,1.6c-0.6,2.4-0.4,4.9,2.5,4.9c2,0,3.7-1.4,4-3.3c0.1-0.7,1.5-9.9,1.5-9.9h-6.2
      c-0.9,0-1.5-0.7-1.3-1.6l0.6-3.8c0.1-0.9,1-1.5,1.8-1.5H26l0.8-5.7c0.6-4,4-10.9,12.5-10.9c5.3,0,8.4,3.6,9.2,6.7
      c0.5,1.9-0.2,5.2-0.2,5.2c-0.1,0.9-0.9,1.6-1.8,1.6h-4.5c-0.9,0-1.5-0.7-1.3-1.6l0.2-1.4c0-0.6,0.4-3.4-2.8-3.4
      c-3.1,0-3.8,3.3-3.8,3.3l-1,6.3h10.4c1.9,0,3.4,1.5,3.4,3.4c0,0.7-3.3,21.7-3.3,21.7c-0.1,0.8-0.9,1.5-1.7,1.5h-4.4
      c-0.8,0-1.4-0.7-1.3-1.5l2.8-18.2h-7l-1.5,10c-1.9,8-8.9,10.2-12.1,10.2C12.8,66.7,10.6,62.4,9.9,60"
    ></path>
  </g>
</svg>
